<svg width="365" height="400" viewBox="0 0 365 400" fill="none" xmlns="http://www.w3.org/2000/svg">
<path d="M133.798 72.4561C162.249 57.741 194.418 52.6811 226.233 57.916C258.049 63.151 288.084 78.4459 312.54 101.866C316.389 105.552 320.073 109.413 323.582 113.435L295.967 132.778C281.656 112.348 261.198 97.0182 237.571 89.0195C213.944 81.0209 188.38 80.7707 164.602 88.3066C140.823 95.8426 120.07 110.771 105.363 130.918C90.6562 151.065 82.7629 175.381 82.832 200.325C82.9011 225.269 90.9286 249.541 105.747 269.606C120.566 289.672 141.402 304.485 165.222 311.889C189.042 319.293 214.603 318.902 238.186 310.772C261.768 302.643 282.14 287.199 296.338 266.689L364.443 313.835C340.209 348.844 305.434 375.205 265.18 389.081C229.521 401.373 191.213 403.298 154.667 394.793C125.882 382.687 100.49 362.124 81.4502 335.436C61.4957 307.465 49.4138 274.024 46.7334 239.341C44.0532 204.658 50.8944 170.291 66.3916 140.586C81.8889 110.881 105.347 87.1712 133.798 72.4561ZM139.578 9.3457C180.167 -3.51756 223.802 -3.09165 264.132 10.5615C304.462 24.2147 339.382 50.3829 363.811 85.2568L335.256 105.257C330.934 100.168 326.36 95.3055 321.547 90.6963C294.983 65.257 262.359 48.6433 227.801 42.957C193.242 37.2708 158.302 42.7675 127.397 58.751C96.4936 74.7345 71.0139 100.487 54.1807 132.753C37.3475 165.019 29.9169 202.348 32.8281 240.021C35.7395 277.693 48.8615 314.018 70.5361 344.399C75.9788 352.028 81.9003 359.196 88.2402 365.857C69.4165 353.173 52.7692 337.301 39.1162 318.813C13.822 284.563 0.118939 243.133 0.000976562 200.555C-0.116949 157.977 13.3559 116.471 38.46 82.0811C63.5641 47.6906 98.9892 22.209 139.578 9.3457Z" fill="#7C6CF8"/>
</svg>
